<svg width="13" height="12" viewBox="0 0 13 12" fill="none" xmlns="http://www.w3.org/2000/svg">
<path fill-rule="evenodd" clip-rule="evenodd" d="M13 6.00003C13 6.19894 12.921 6.38971 12.7803 6.53036C12.6397 6.67101 12.4489 6.75003 12.25 6.75003L3.5605 6.75003L6.781 9.96903C6.92183 10.1099 7.00095 10.3009 7.00095 10.5C7.00095 10.6992 6.92183 10.8902 6.781 11.031C6.64017 11.1719 6.44916 11.251 6.25 11.251C6.05084 11.251 5.85983 11.1719 5.719 11.031L1.219 6.53103C1.14915 6.46136 1.09374 6.3786 1.05593 6.28748C1.01812 6.19636 0.998659 6.09868 0.998659 6.00003C0.998659 5.90138 1.01812 5.8037 1.05593 5.71258C1.09374 5.62146 1.14915 5.5387 1.219 5.46903L5.719 0.969028C5.85983 0.828198 6.05084 0.749082 6.25 0.749082C6.44916 0.749082 6.64017 0.828198 6.781 0.969028C6.92183 1.10986 7.00095 1.30087 7.00095 1.50003C7.00095 1.69919 6.92183 1.8902 6.781 2.03103L3.5605 5.25003L12.25 5.25003C12.4489 5.25003 12.6397 5.32905 12.7803 5.4697C12.921 5.61035 13 5.80112 13 6.00003Z" fill="black"/>
</svg>
